Title                            : The Malay Chronicles: Bloodlines
Also Known As                    : Clash of Empires: Battle for Asia
Year                             : 2011
Genre                            : Action | Adventure
iMDB URL                         : http://www.imdb.com/title/tt1784670/

Complete name                    : Clash.of.Empires.Battle.for.Asia.2011.BRRIP.720P.H264-ZEKTORM.mp4
Format                           : MPEG-4
Format profile                   : Base Media
Codec ID                         : isom
File size                        : 2.34 GiB
Duration                         : 1h 49mn
Overall bit rate                 : 3074 Kbps
Subtitles                        : English (Format: srt)

Video
ID                               : 1
Format                           : AVC
Format/Info                      : Advanced Video Codec
Format profile                   : High@L4.0
Format settings, CABAC           : Yes
Format settings, ReFrames        : 9 frames
Codec ID                         : avc1
Codec ID/Info                    : Advanced Video Coding
Duration                         : 1h 49mn
Bit rate mode                    : Variable
Bit rate                         : 2841 Kbps
Width                            : 1280 pixels
Height                           : 720 pixels
Display aspect ratio             : 16/9
Frame rate mode                  : Constant
Frame rate                       : 24.000 fps
Resolution                       : 24 bits
Colorimetry                      : 4:2:0
Scan type                        : Progressive
Bits/(Pixel*Frame)               : 0.128
Stream size                      : 2.17 GiB (92%)
Title                            : Video
Writing library                  : x264

Audio
ID                               : 2
Format                           : AAC
Format/Info                      : Advanced Audio Codec
Format version                   : Version 4
Format profile                   : LC
Format settings, SBR             : Yes
Format settings, PS              : No
Codec ID                         : 40
Duration                         : 1h 49mn
Bit rate mode                    : Variable
Bit rate                         : 229 Kbps
Maximum bit rate                 : 259 Kbps
Channel(s)                       : 6 channels
Channel positions                : Front: L C R, Rear: L R, LFE
Sampling rate                    : 48.0 KHz
Resolution                       : 16 bits
Stream size                      : 179 MiB (7%)
Title                            : English
Language                         : English


Screenshots:

[img]http://img32.imageshack.us/img32/6533/snapcoebfa1.png[/img]

[img]http://img69.imageshack.us/img69/1769/snapcoebfa2.png[/img]

[img]http://img820.imageshack.us/img820/4619/snapcoebfa3.png[/img]

[img]http://img840.imageshack.us/img840/4353/snapcoebfa4.png[/img]

[img]http://img21.imageshack.us/img21/3316/snapcoebfa5.png[/img]
